<?xml version="1.0" encoding="utf-8"?>
<!-- Generator: Adobe Illustrator 18.1.0, SVG Export Plug-In . SVG Version: 6.00 Build 0)  -->
<!DOCTYPE svg PUBLIC "-//W3C//DTD SVG 1.1//EN" "http://www.w3.org/Graphics/SVG/1.1/DTD/svg11.dtd">
<svg version="1.1" id="Layer_1" xmlns="http://www.w3.org/2000/svg" xmlns:xlink="http://www.w3.org/1999/xlink" x="0px" y="0px"
	 viewBox="0 0 94 50" enable-background="new 0 0 94 50" xml:space="preserve">
<g>
	<path d="M86.7,25l6.7-11.5c0.3-0.6,0.3-1.3,0-1.9L87.2,0.9c-0.3-0.6-1-0.9-1.6-0.9H73.4c-0.7,0-1.3,0.4-1.6,0.9l-6.7,11.5H50.7
		L44,0.9C43.6,0.4,43,0,42.3,0H30.1c-0.7,0-1.3,0.4-1.6,0.9l-6.7,11.5H8.4c-0.7,0-1.3,0.4-1.6,0.9L0.7,24c-0.3,0.6-0.3,1.3,0,1.9
		l6.1,10.6c0.3,0.6,1,0.9,1.6,0.9h13.4l6.7,11.5c0.3,0.6,1,0.9,1.6,0.9h12.2c0.7,0,1.3-0.4,1.6-0.9l6.7-11.5H65l6.7,11.5
		c0.3,0.6,1,0.9,1.6,0.9h12.2c0.7,0,1.3-0.4,1.6-0.9l6.1-10.6c0.3-0.6,0.3-1.3,0-1.9L86.7,25z"/>
	<path fill="#FCDA00" d="M66.3,37l6.2-10.7c0.2-0.3,0.5-0.5,0.9-0.5h12.3c0.4,0,0.7,0.2,0.9,0.5L92.7,37c0.2,0.3,0.2,0.7,0,1
		l-6.2,10.7c-0.2,0.3-0.5,0.5-0.9,0.5H73.3c-0.4,0-0.7-0.2-0.9-0.5L66.3,38C66.1,37.7,66.1,37.3,66.3,37"/>
	<path fill="#FCDA00" d="M23,37l6.2-10.7c0.2-0.3,0.5-0.5,0.9-0.5h12.3c0.4,0,0.7,0.2,0.9,0.5L49.4,37c0.2,0.3,0.2,0.7,0,1
		l-6.2,10.7c-0.2,0.3-0.5,0.5-0.9,0.5H30c-0.4,0-0.7-0.2-0.9-0.5L23,38C22.8,37.7,22.8,37.3,23,37"/>
	<polygon fill="#FFFFFF" points="11.5,29.5 11.5,26.3 17,26.3 17,29.5 20.6,29.5 20.6,21.5 16.9,21.5 16.9,24.6 11.5,24.6 
		11.5,21.5 8,21.5 8,29.5 	"/>
	<path fill="#FFFFFF" d="M57.8,27.3c-1.3-2-2.5-3.9-3.7-5.8h-3.7c0,0.1,0,0.2,0.1,0.2c1.6,2.3,3.3,4.6,5,6.9
		c0.2,0.2,0.5,0.5,0.8,0.7"/>
	<rect x="34.3" y="8.5" fill="#FFFFFF" width="3.5" height="8.1"/>
	<polygon fill="#FFFFFF" points="11.5,29.5 8,29.5 8,21.5 11.5,21.5 11.5,24.6 16.9,24.6 16.9,21.5 20.6,21.5 20.6,29.5 17,29.5 
		17,26.3 11.5,26.3 	"/>
	<path fill="#FFFFFF" d="M61.5,21.5c-1.2,1.9-2.4,3.8-3.7,5.8c-1.3-2-2.5-3.9-3.7-5.8h-3.7c0,0.1,0,0.2,0.1,0.2
		c1.6,2.3,3.3,4.6,5,6.9c0.2,0.2,0.5,0.5,0.8,0.7c0.5,0.2,1,0.3,1.6,0.3c0.6,0,1.1,0,1.6-0.3c0.3-0.2,0.6-0.4,0.8-0.7
		c1.7-2.3,3.3-4.6,5-6.9c0,0,0.1-0.1,0.1-0.2L61.5,21.5L61.5,21.5z"/>
	<rect x="34.3" y="8.5" fill="#FFFFFF" width="3.5" height="8.1"/>
	<rect x="34.3" y="33.4" width="3.5" height="8.1"/>
	<path fill="#FFFFFF" d="M85.2,12.5v0.9h-7.6v0.6c0,0.7,0.2,0.9,1.3,0.9c0.4,0,0.7,0,1.1,0c1.4,0,2.9,0,4.3,0c0.3,0,0.6,0,0.9,0v1.6
		c0,0-0.4,0-0.5,0c-2.3,0-4.6,0-6.9,0c-0.7,0-1.3,0-1.9-0.1c-1.2-0.2-1.8-0.7-1.9-1.7v-2.2v-2.2c0-1,0.7-1.6,1.9-1.7
		c0.7-0.1,1.2-0.1,1.9-0.1c2.3,0,4.6,0,6.9,0c0.2,0,0.5,0,0.5,0v1.6c-0.3,0-0.6,0-0.9,0c-1.4,0-2.9,0-4.3,0c-0.4,0-0.7,0-1.1,0
		c-1.1,0-1.3,0.2-1.3,0.9v0.6h7.6V12.5z"/>
	<path d="M74,37.5v0.9h7.6V39c0,0.7-0.2,0.9-1.3,0.9c-0.4,0-0.7,0-1.1,0c-1.4,0-2.9,0-4.3,0c-0.3,0-0.6,0-0.9,0v1.6c0,0,0.4,0,0.5,0
		c2.3,0,4.6,0,6.9,0c0.7,0,1.3,0,1.9-0.1c1.2-0.2,1.8-0.7,1.9-1.7v-2.2v-2.2c0-1-0.7-1.6-1.9-1.7c-0.7-0.1-1.2-0.1-1.9-0.1
		c-2.3,0-4.6,0-6.9,0c-0.2,0-0.5,0-0.5,0V35c0.3,0,0.6,0,0.9,0c1.4,0,2.9,0,4.3,0c0.4,0,0.7,0,1.1,0c1.1,0,1.3,0.2,1.3,0.9v0.6H74
		V37.5z"/>
</g>
</svg>
