<?xml version="1.0" encoding="utf-8"?>
<!-- Generator: Adobe Illustrator 18.1.0, SVG Export Plug-In . SVG Version: 6.00 Build 0)  -->
<!DOCTYPE svg PUBLIC "-//W3C//DTD SVG 1.1//EN" "http://www.w3.org/Graphics/SVG/1.1/DTD/svg11.dtd">
<svg version="1.1" id="Layer_1" xmlns="http://www.w3.org/2000/svg" xmlns:xlink="http://www.w3.org/1999/xlink" x="0px" y="0px"
	 viewBox="0 0 42 42" enable-background="new 0 0 42 42" xml:space="preserve">
<g>
	<path d="M33,4H9C6.3,4,4.2,6.2,4.2,8.8v24.3C4.2,35.8,6.3,38,9,38h24c2.7,0,4.8-2.2,4.8-4.8V8.8C37.8,6.2,35.7,4,33,4z M34.7,32
		c0,1.4-1.1,2.5-2.5,2.5H9.8c-1.4,0-2.5-1.1-2.5-2.5V14.8h27.3V32z"/>
	<g>
		<g>
			<path d="M19,18.7v11h-2.1v-8.9l-2.1,0.5v-1.4l2.1-1.2H19z"/>
			<path d="M20.3,20.5v-1.6c1.5-0.3,3-0.4,4.6-0.4c1.1,0,1.9,0.3,2.5,1c0.5,0.6,0.8,1.4,0.8,2.4c0,1.7-1.4,3.6-4.1,5.8h4.1v1.9h-7.7
				v-1.8c0.8-0.5,1.6-1.1,2.3-1.7s1.3-1.1,1.7-1.6c0.4-0.4,0.8-0.9,1.1-1.4s0.5-0.9,0.5-1.2c0-0.3-0.1-0.6-0.2-0.8
				c-0.2-0.4-0.8-0.6-1.6-0.6H20.3z"/>
		</g>
	</g>
</g>
</svg>
