<?xml version="1.0" encoding="utf-8"?>
<!-- Generator: Adobe Illustrator 18.1.0, SVG Export Plug-In . SVG Version: 6.00 Build 0)  -->
<!DOCTYPE svg PUBLIC "-//W3C//DTD SVG 1.1//EN" "http://www.w3.org/Graphics/SVG/1.1/DTD/svg11.dtd">
<svg version="1.1" id="Layer_1" xmlns="http://www.w3.org/2000/svg" xmlns:xlink="http://www.w3.org/1999/xlink" x="0px" y="0px"
	 viewBox="0 0 57 50" enable-background="new 0 0 57 50" xml:space="preserve">
<g>
	<g>
		<path fill="#FCDA00" d="M16,49.6c-1.1,0-2-0.6-2.6-1.5L0.9,26.5c-0.5-0.9-0.5-2.1,0-3L13.4,1.9C14,0.9,14.9,0.4,16,0.4h25
			c1.1,0,2,0.6,2.6,1.5l12.5,21.7c0.5,0.9,0.5,2.1,0,3L43.6,48.1c-0.5,0.9-1.5,1.5-2.6,1.5H16z"/>
		<path d="M41,0.8c0.9,0,1.8,0.5,2.2,1.3l12.5,21.7c0.5,0.8,0.5,1.8,0,2.6L43.3,48c-0.5,0.8-1.3,1.3-2.2,1.3H16
			c-0.9,0-1.8-0.5-2.2-1.3L1.2,26.3c-0.5-0.8-0.5-1.8,0-2.6L13.7,2c0.5-0.8,1.3-1.3,2.2-1.3H41 M41,0H16c-1.2,0-2.3,0.6-2.9,1.7
			L0.6,23.3c-0.6,1-0.6,2.3,0,3.3l12.5,21.7c0.6,1,1.7,1.7,2.9,1.7h25c1.2,0,2.3-0.6,2.9-1.7l12.5-21.7c0.6-1,0.6-2.3,0-3.3
			L43.9,1.7C43.3,0.6,42.2,0,41,0L41,0z"/>
	</g>
	<g>
		<g>
			<path d="M14.3,26.2c-0.1-0.3-0.1-0.6-0.1-1c0-0.4-0.1-0.9-0.1-1.4c0-0.5,0-1.1,0.1-1.6c0.1-0.5,0.2-0.9,0.3-1.2
				c0.1-0.3,0.3-0.6,0.5-0.9c0.2-0.2,0.4-0.4,0.6-0.6c0.2-0.1,0.4-0.2,0.7-0.3c0.4-0.1,0.9-0.2,1.4-0.2c0.5,0,0.9,0,1.1,0
				c0.2,0,0.5,0.1,0.7,0.1c0.3,0.1,0.5,0.1,0.7,0.2c0.2,0.1,0.4,0.2,0.5,0.4c0.2,0.2,0.3,0.4,0.5,0.6c0.1,0.2,0.2,0.5,0.3,0.8
				c0.2,0.6,0.3,1.4,0.3,2.2c0,0.9,0,1.5-0.1,2s-0.1,0.9-0.3,1.2c-0.1,0.3-0.2,0.6-0.4,0.9c-0.2,0.2-0.4,0.4-0.6,0.6
				c-0.2,0.1-0.4,0.3-0.7,0.3c-0.6,0.2-1.5,0.2-2.5,0.2c-0.5,0-0.9-0.1-1.2-0.2s-0.5-0.2-0.6-0.3c-0.2-0.1-0.3-0.3-0.4-0.4
				c-0.1-0.2-0.2-0.4-0.3-0.6S14.4,26.5,14.3,26.2z M16.1,21.9c0,0.2-0.1,0.5-0.1,0.8c0,0.3,0,0.7,0,1.2s0,0.9,0.1,1.2
				s0.1,0.6,0.2,0.9s0.2,0.4,0.4,0.5c0.3,0.2,0.8,0.3,1.4,0.3c0.6,0,1.1-0.1,1.4-0.3c0.4-0.3,0.6-1.2,0.6-2.7c0-1-0.1-1.7-0.2-2
				c-0.1-0.3-0.2-0.6-0.3-0.7c-0.1-0.1-0.2-0.2-0.4-0.3c-0.3-0.1-0.6-0.2-0.9-0.2c-0.4,0-0.6,0-0.8,0c-0.1,0-0.3,0-0.5,0.1
				c-0.2,0-0.3,0.1-0.4,0.2s-0.2,0.2-0.3,0.4S16.1,21.7,16.1,21.9z"/>
			<path d="M25.5,21.8c0.4-0.2,0.8-0.2,1.2-0.2c0.4,0,0.7,0.1,1,0.2c0.3,0.2,0.5,0.4,0.7,0.7c0.3,0.6,0.5,1.4,0.5,2.5
				c0,1.4-0.2,2.4-0.6,2.9c-0.4,0.4-0.9,0.7-1.6,0.7c-0.3,0-0.7,0-1-0.1s-0.7-0.2-1-0.3V32h-1.8V21.6h1.5l0.3,0.7
				C24.8,22.1,25.1,22,25.5,21.8z M26.2,27.2c0.2,0,0.4,0,0.5-0.1c0.3-0.2,0.4-0.9,0.4-1.9c0-0.7-0.1-1.3-0.2-1.6
				c-0.1-0.3-0.4-0.4-0.7-0.4c-0.6,0-1.2,0.1-1.6,0.4v3.4C25,27.1,25.5,27.2,26.2,27.2z"/>
			<path d="M31.7,21.7c0.3-0.1,0.6-0.1,1-0.1s0.7,0,0.9,0c0.2,0,0.4,0,0.7,0.1c0.2,0,0.4,0.1,0.5,0.2s0.3,0.2,0.4,0.3
				s0.2,0.3,0.3,0.4c0.2,0.4,0.2,0.8,0.2,1.3s-0.1,0.9-0.2,1.1c-0.3,0.5-0.8,0.7-1.7,0.7h-2.2c0,0.3,0,0.5,0.1,0.7
				c0.1,0.2,0.1,0.3,0.3,0.4s0.3,0.1,0.4,0.2c0.2,0,0.6,0,1.2,0s1.3,0,1.9-0.1v1.2c-0.4,0.1-0.8,0.2-1.2,0.3c-0.4,0-0.7,0.1-0.8,0.1
				c-0.1,0-0.3,0-0.5,0c-0.3,0-0.6,0-1,0c-0.9,0-1.4-0.3-1.8-0.8c-0.3-0.5-0.5-1.4-0.5-2.6s0.1-2.1,0.4-2.6
				C30.5,22.1,31,21.8,31.7,21.7z M33.9,24c0-0.4-0.1-0.7-0.2-0.8S33.4,23,33,23s-0.6,0-0.7,0s-0.3,0.1-0.4,0.2
				c-0.1,0.1-0.2,0.2-0.2,0.4c0,0.2-0.1,0.4-0.1,0.6s0,0.3,0,0.3h1.7C33.7,24.5,33.9,24.3,33.9,24z"/>
			<path d="M40.7,21.5c1.4,0,2.1,0.8,2.1,2.4v4.6h-1.8v-4.6c0-0.6-0.3-0.9-0.8-0.9c-0.3,0-0.6,0-0.9,0.1s-0.5,0.2-0.8,0.5v4.9h-1.8
				v-6.9h1.4l0.4,0.7c0.6-0.5,1.1-0.7,1.5-0.8C40.2,21.5,40.4,21.5,40.7,21.5z"/>
		</g>
	</g>
</g>
</svg>
