<?xml version="1.0" encoding="utf-8"?>
<!-- Generator: Adobe Illustrator 18.1.0, SVG Export Plug-In . SVG Version: 6.00 Build 0)  -->
<!DOCTYPE svg PUBLIC "-//W3C//DTD SVG 1.1//EN" "http://www.w3.org/Graphics/SVG/1.1/DTD/svg11.dtd">
<svg version="1.1" id="Layer_1" xmlns="http://www.w3.org/2000/svg" xmlns:xlink="http://www.w3.org/1999/xlink" x="0px" y="0px"
	 viewBox="0 0 57 50" enable-background="new 0 0 57 50" xml:space="preserve">
<g>
	<path d="M13.1,48.3L0.6,26.7c-0.6-1-0.6-2.3,0-3.3L13.1,1.7C13.7,0.6,14.8,0,16,0h25c1.2,0,2.3,0.6,2.9,1.7l12.5,21.7
		c0.6,1,0.6,2.3,0,3.3L43.9,48.3c-0.6,1-1.7,1.7-2.9,1.7H16C14.8,50,13.7,49.4,13.1,48.3z"/>
	<g>
		<g>
			<path fill="#FFFFFF" d="M10.1,20.2c0.3-0.6,0.8-0.9,1.4-1.1c0.3-0.1,0.7-0.1,1.1-0.1c1.2,0,2.3,0.1,3.3,0.4v1.4
				c-0.1,0-0.2,0-0.4,0c-0.1,0-0.2,0-0.4,0c-0.1,0-0.3,0-0.5,0c-0.2,0-0.4,0-0.5,0c-0.4,0-0.8,0-1.1,0c-0.3,0-0.6,0-0.7,0.1
				c-0.2,0-0.3,0.1-0.5,0.2c-0.2,0.1-0.3,0.3-0.4,0.5c-0.2,0.5-0.3,1.3-0.3,2.4c0,1.1,0.1,1.9,0.4,2.4c0.3,0.5,0.7,0.7,1.5,0.7
				c0.8,0,1.6,0,2.5-0.1l0.4,0v1.4c-0.8,0.2-1.8,0.4-3,0.4c-0.1,0-0.2,0-0.3,0c-1.2,0-2-0.4-2.5-1.2c-0.5-0.8-0.7-2-0.7-3.7
				S9.6,20.9,10.1,20.2z"/>
			<path fill="#FFFFFF" d="M16.9,26.1v-7.7h1.8v7.4c0,0.5,0,0.8,0.1,1c0.1,0.2,0.2,0.3,0.5,0.4c0.5,0.2,0.8,0.3,0.9,0.3v1.1h-1.5
				c-0.6,0-1-0.2-1.3-0.6C17,27.6,16.9,26.9,16.9,26.1z"/>
			<path fill="#FFFFFF" d="M20.5,25.2c0-0.6,0-1.1,0.1-1.5c0.1-0.4,0.2-0.7,0.3-1c0.1-0.3,0.3-0.5,0.6-0.7c0.5-0.3,1.2-0.5,2.1-0.5
				c1.2,0,2,0.3,2.4,0.8c0.5,0.5,0.7,1.4,0.7,2.8s-0.2,2.2-0.7,2.7c-0.4,0.5-1.3,0.7-2.5,0.7c-1.2,0-2-0.3-2.5-0.8
				C20.8,27.3,20.5,26.4,20.5,25.2z M22.6,23.4c-0.1,0.2-0.2,0.4-0.2,0.6c0,0.3-0.1,0.6-0.1,1.1s0,0.8,0.1,1.1
				c0,0.3,0.1,0.5,0.2,0.6c0.1,0.1,0.2,0.2,0.4,0.3c0.1,0,0.3,0.1,0.6,0.1s0.4,0,0.6,0c0.1,0,0.2-0.1,0.4-0.1
				c0.1-0.1,0.2-0.2,0.3-0.3c0.1-0.3,0.2-0.7,0.2-1.3s0-0.9,0-1.2s-0.1-0.5-0.1-0.6s-0.1-0.3-0.2-0.4c-0.2-0.1-0.5-0.2-0.8-0.2
				c-0.4,0-0.6,0-0.8,0.1C22.9,23.1,22.7,23.2,22.6,23.4z"/>
			<path fill="#FFFFFF" d="M29.5,21.6c2,0,3.3,0.1,3.7,0.3v1.1H30c-0.2,0-0.4,0-0.4,0.1c-0.1,0.1-0.1,0.2-0.1,0.4v0.3
				c0,0.2,0,0.3,0.1,0.4s0.2,0.1,0.4,0.1h1.6c0.4,0,0.8,0.1,1,0.2c0.5,0.3,0.8,0.8,0.8,1.5v0.7c0,0.6-0.2,1.1-0.5,1.4
				c-0.3,0.3-0.7,0.4-1.2,0.4c-2.2,0-3.4-0.1-3.8-0.4v-1.1h3.2c0.3,0,0.5-0.1,0.5-0.4v-0.3c0-0.2,0-0.3-0.1-0.3
				c-0.1-0.1-0.2-0.1-0.4-0.1h-1.6c-1.3,0-1.9-0.6-1.9-1.8v-0.6C27.7,22.2,28.3,21.6,29.5,21.6z"/>
			<path fill="#FFFFFF" d="M36.2,21.7c0.3-0.1,0.6-0.1,1-0.1s0.7,0,0.9,0c0.2,0,0.4,0,0.7,0.1c0.2,0,0.4,0.1,0.5,0.2
				s0.3,0.2,0.4,0.3c0.1,0.1,0.2,0.3,0.3,0.4c0.2,0.4,0.2,0.8,0.2,1.3s-0.1,0.9-0.2,1.1c-0.3,0.5-0.8,0.7-1.7,0.7h-2.2
				c0,0.3,0,0.5,0.1,0.7c0.1,0.2,0.1,0.3,0.3,0.4s0.3,0.1,0.4,0.2c0.2,0,0.6,0,1.2,0s1.3,0,1.9-0.1v1.2c-0.4,0.1-0.8,0.2-1.2,0.3
				c-0.4,0-0.7,0.1-0.8,0.1c-0.1,0-0.3,0-0.5,0c-0.3,0-0.6,0-1,0c-0.9,0-1.4-0.3-1.8-0.8c-0.3-0.5-0.5-1.4-0.5-2.6
				c0-1.2,0.1-2.1,0.4-2.6C35,22.1,35.5,21.8,36.2,21.7z M38.4,24c0-0.4-0.1-0.7-0.2-0.8S37.9,23,37.6,23s-0.6,0-0.7,0
				s-0.3,0.1-0.4,0.2s-0.2,0.2-0.2,0.4c0,0.2-0.1,0.4-0.1,0.6c0,0.2,0,0.3,0,0.3h1.7C38.3,24.5,38.4,24.3,38.4,24z"/>
			<path fill="#FFFFFF" d="M41.1,25.3c0-1,0.1-1.8,0.2-2.2c0.1-0.4,0.3-0.7,0.4-0.9c0.4-0.4,0.9-0.6,1.6-0.6c0.3,0,0.7,0,1,0.1
				s0.7,0.2,1,0.3v-3.6h1.8v10.1h-1.5l-0.3-0.7c-0.2,0.2-0.6,0.4-0.9,0.5s-0.8,0.2-1.1,0.2c-0.8,0-1.4-0.3-1.7-0.9
				C41.3,27.1,41.1,26.3,41.1,25.3z M43.3,23.1c-0.1,0.1-0.2,0.3-0.3,0.6s-0.1,0.8-0.1,1.4c0,0.7,0.1,1.1,0.2,1.4
				c0.1,0.3,0.4,0.4,0.7,0.4c0.6,0,1.2-0.1,1.6-0.4v-3.4C45,23,44.5,23,43.8,23C43.6,23,43.5,23,43.3,23.1z"/>
		</g>
	</g>
</g>
</svg>
